<svg xmlns="http://www.w3.org/2000/svg" xml:space="preserve" width="2048" height="2048" style="shape-rendering:geometricPrecision;text-rendering:geometricPrecision;image-rendering:optimizeQuality;fill-rule:evenodd;clip-rule:evenodd"><defs><style>.fil0,.fil1{fill:#212121;fill-rule:nonzero}.fil0{fill:#66bb6a}</style></defs><g id="Layer_x0020_1"><path class="fil0" d="M1136.31 757.768h343.033c48.013 0 91.646 19.625 123.262 51.241s51.241 75.25 51.241 123.262v5.732h-48v-5.732c0-34.762-14.24-66.385-37.179-89.325-22.94-22.939-54.562-37.178-89.324-37.178h-361.17c-11.322.193-21.539-7.683-23.896-19.18l23.51-4.82-23.437 4.78c-7.564-36.887-27.899-69.293-56.143-92.354C1010.53 671.596 975.204 658 936.818 658H602.863c-44.17 0-84.342 18.087-113.482 47.226-29.139 29.14-47.226 69.312-47.226 113.482v119.294h-48V818.71c0-57.42 23.473-109.604 61.288-147.419 37.816-37.815 90-61.288 147.42-61.288h333.954c49.733 0 95.582 17.679 131.576 47.068 31.643 25.835 55.634 60.758 67.916 100.699z"/><path class="fil0" d="M1130.5 602.703h320.916c45.475 0 86.8 18.586 116.743 48.53 18.526 18.525 32.705 41.409 40.822 66.931 4.817 15.145 15.569 61.02 16.363 79.894a202.06 202.06 0 0 0-5.77-6.02c-15.122-15.122-32.368-27.563-51.048-37.01-8.4-24.399-16.058-51.61-34.305-69.857-21.266-21.267-50.58-34.468-82.805-34.468H1112.42c-20.434.341-18.359-8.41-25.539-26.607-8.095-31.219-26.118-58.574-50.47-78.458C1010.685 524.634 977.849 512 942.164 512H628.691c-41.054 0-78.395 16.813-105.48 43.9-9.37 9.368-40.478 55.627-47.878 68.36a234.847 234.847 0 0 0-36.86 30.06 234.914 234.914 0 0 0-29.427 35.9c-.13-11.085 23.235-73.937 33.88-94.436 15.598-30.04 37.93-65.407 46.347-73.823C525.033 486.198 574.386 464 628.692 464h313.473c47.031 0 90.39 16.72 124.433 44.514 29.648 24.21 52.193 56.854 63.902 94.19z"/><path class="fil0" d="M1124.69 447.638h298.806c42.937 0 81.954 17.549 110.224 45.819 28.27 28.27 45.819 67.287 45.819 110.224v25.211a189.92 189.92 0 0 0-48.243-32.43c-1.795-26.83-13.521-51.075-31.514-69.068-19.593-19.593-46.6-31.756-76.286-31.756h-316.822c-11.322.194-21.539-7.683-23.896-19.179l23.51-4.821-23.437 4.78c-6.497-31.683-23.967-59.522-48.233-79.335-23.772-19.41-54.12-31.087-87.101-31.087H654.525c-37.94 0-72.45 15.539-97.482 40.571-16.796 16.797-29.32 37.862-35.74 61.366a222.84 222.84 0 0 0-48.994 37.057 70.511 70.511 0 0 0-3.837 4.184v-5.126c0-51.19 20.925-97.71 54.634-131.419 33.708-33.708 80.228-54.633 131.419-54.633h292.992c44.329 0 85.198 15.76 117.288 41.963 27.652 22.579 48.75 52.945 59.884 87.679z"/><path class="fil1" d="M280.002 962.002h1488c13.254 0 24 10.746 24 24v744.002c0 13.254-10.746 24-24 24h-1488c-13.254 0-24-10.746-24-24V986.002c0-13.254 10.746-24 24-24zm1464 48h-1440v696.002h1440v-696.002z"/><path class="fil1" d="M321.437 962.002h48.722v24a47.764 47.764 0 0 0 6.427 24h-96.294a23.881 23.881 0 0 1-12.285-3.211c-11.48-6.624-15.418-21.303-8.794-32.783l.09.052L374.39 774.583a231.83 231.83 0 0 0-4.231 44.126v58.845L321.437 962zm1356.41 0h48.72l-75.831-131.436-1.412-33.519c-.582-13.831-3.823-29.519-6.698-43.087-3-14.156-6.387-29.281-10.772-43.07a188.619 188.619 0 0 0-15.874-36.205l171.599 297.43a23.89 23.89 0 0 1 4.424 13.887c0 13.254-10.746 24-24 24h-96.583a47.764 47.764 0 0 0 6.427-24v-24zM704.001 1270h640.001c13.254 0 24 10.746 24 24v128c0 13.254-10.746 24-24 24H704.001c-13.254 0-24-10.746-24-24v-128c0-13.254 10.746-24 24-24zm616.001 48H728.001v80h592.001v-80z"/></g><path style="fill:none" d="M0 0h2048v2048H0z"/></svg>